<svg xmlns="http://www.w3.org/2000/svg" width="600" height="300">
<rect x="50.0" y="257.3745819397993" width="9.0" height="22" fill="#2ca02c" />
<rect x="60.0" y="60.0" width="9.0" height="220" fill="#2ca02c" />
<rect x="70.0" y="185.57413600891863" width="9.0" height="94" fill="#2ca02c" />
<rect x="80.0" y="233.70680044593087" width="9.0" height="46" fill="#2ca02c" />
<rect x="90.0" y="186.2486064659978" width="9.0" height="93" fill="#2ca02c" />
<rect x="100.0" y="254.3701226309922" width="9.0" height="25" fill="#2ca02c" />
<rect x="110.0" y="274.17502787068" width="9.0" height="5" fill="#2ca02c" />
<rect x="120.0" y="275.4626532887402" width="9.0" height="4" fill="#2ca02c" />
<rect x="130.0" y="268.71794871794873" width="9.0" height="11" fill="#2ca02c" />
<rect x="140.0" y="262.2185061315496" width="9.0" height="17" fill="#2ca02c" />
<rect x="150.0" y="258.355629877369" width="9.0" height="21" fill="#2ca02c" />
<rect x="160.0" y="259.39799331103677" width="9.0" height="20" fill="#2ca02c" />
<rect x="170.0" y="266.4492753623188" width="9.0" height="13" fill="#2ca02c" />
<rect x="180.0" y="270.5574136008919" width="9.0" height="9" fill="#2ca02c" />
<rect x="190.0" y="275.15607580824974" width="9.0" height="4" fill="#2ca02c" />
<rect x="200.0" y="277.73132664437014" width="9.0" height="2" fill="#2ca02c" />
<rect x="210.0" y="278.9576365663322" width="9.0" height="1" fill="#2ca02c" />
<rect x="220.0" y="279.44816053511704" width="9.0" height="0" fill="#2ca02c" />
<rect x="230.0" y="279.93868450390187" width="9.0" height="0" fill="#2ca02c" />
<rect x="240.0" y="279.8773690078038" width="9.0" height="0" fill="#2ca02c" />
<rect x="250.0" y="280.0" width="9.0" height="0" fill="#2ca02c" />
<rect x="260.0" y="279.93868450390187" width="9.0" height="0" fill="#2ca02c" />
<rect x="270.0" y="279.8773690078038" width="9.0" height="0" fill="#2ca02c" />
<rect x="280.0" y="280.0" width="9.0" height="0" fill="#2ca02c" />
<rect x="290.0" y="280.0" width="9.0" height="0" fill="#2ca02c" />
<rect x="300.0" y="280.0" width="9.0" height="0" fill="#2ca02c" />
<rect x="310.0" y="280.0" width="9.0" height="0" fill="#2ca02c" />
<rect x="320.0" y="280.0" width="9.0" height="0" fill="#2ca02c" />
<rect x="330.0" y="280.0" width="9.0" height="0" fill="#2ca02c" />
<rect x="340.0" y="280.0" width="9.0" height="0" fill="#2ca02c" />
<rect x="350.0" y="280.0" width="9.0" height="0" fill="#2ca02c" />
<rect x="360.0" y="280.0" width="9.0" height="0" fill="#2ca02c" />
<rect x="370.0" y="280.0" width="9.0" height="0" fill="#2ca02c" />
<rect x="380.0" y="280.0" width="9.0" height="0" fill="#2ca02c" />
<rect x="390.0" y="280.0" width="9.0" height="0" fill="#2ca02c" />
<rect x="400.0" y="280.0" width="9.0" height="0" fill="#2ca02c" />
<rect x="410.0" y="280.0" width="9.0" height="0" fill="#2ca02c" />
<rect x="420.0" y="280.0" width="9.0" height="0" fill="#2ca02c" />
<rect x="430.0" y="280.0" width="9.0" height="0" fill="#2ca02c" />
<rect x="440.0" y="280.0" width="9.0" height="0" fill="#2ca02c" />
<rect x="450.0" y="280.0" width="9.0" height="0" fill="#2ca02c" />
<rect x="460.0" y="280.0" width="9.0" height="0" fill="#2ca02c" />
<rect x="470.0" y="280.0" width="9.0" height="0" fill="#2ca02c" />
<rect x="480.0" y="280.0" width="9.0" height="0" fill="#2ca02c" />
<rect x="490.0" y="280.0" width="9.0" height="0" fill="#2ca02c" />
<rect x="500.0" y="280.0" width="9.0" height="0" fill="#2ca02c" />
<rect x="510.0" y="280.0" width="9.0" height="0" fill="#2ca02c" />
<rect x="520.0" y="280.0" width="9.0" height="0" fill="#2ca02c" />
<rect x="530.0" y="279.93868450390187" width="9.0" height="0" fill="#2ca02c" />
<rect x="540.0" y="280.0" width="9.0" height="0" fill="#2ca02c" />
</svg>